{"title":"Khoka 420 (2013) SCam x264 [700mb] - www.Jalsatime.com.mp4","uid":8858166,"size":633091609,"categoryP":"video","categoryS":"movies","magnet":"?xt=urn:btih:bae8d68405c3f43d0266ef4e0ece4a63b309ead3&amp;dn=Khoka+420+%282013%29+SCam+x264+%5B700mb%5D+-+www.Jalsatime.com.mp4&amp;tr=udp%3A%2F%2Ftracker.openbittorrent.com%3A80&amp;tr=udp%3A%2F%2Fopen.demonii.com%3A1337&amp;tr=udp%3A%2F%2Ftracker.coppersurfer.tk%3A6969&amp;tr=udp%3A%2F%2Fexodus.desync.com%3A6969","seeders":1,"leechers":0,"uploader":null,"files":1,"time":1377709521,"description":"[CENTER][IMG]http://entertainstock.com/wp-content/uploads/2013/04/Khoka-420-MP3-Songs-Download.jpg[/IMG]\n\n:INFO:\n\n[CODE]\nGeneral\nComplete name                            : Khoka 420 (2013) SCam x264 [700mb].mp4\nFormat                                   : MPEG-4\nFormat profile                           : Base Media\nCodec ID                                 : isom\nFile size                                : 604 MiB\nDuration                                 : 2h 32mn\nOverall bit rate                         : 552 Kbps\nWriting application                      : Lavf54.59.106\n\nVideo\nID                                       : 1\nFormat                                   : AVC\nFormat/Info                              : Advanced Video Codec\nFormat profile                           : &lt;a class=&quot;__cf_email__&quot; href=&quot;/cdn-cgi/l/email-protection&quot; data-cfemail=&quot;80c8e9e7e8c0ccb3aeb0&quot;&gt;[email&amp;#160;protected]&lt;/a&gt;&lt;script cf-hash='f9e31' type=&quot;text/javascript&quot;&gt;\n/* &lt;![CDATA[ */!function(){try{var t=&quot;currentScript&quot;in document?document.currentScript:function(){for(var t=document.getElementsByTagName(&quot;script&quot;),e=t.length;e--;)if(t[e].getAttribute(&quot;cf-hash&quot;))return t[e]}();if(t&amp;&amp;t.previousSibling){var e,r,n,i,c=t.previousSibling,a=c.getAttribute(&quot;data-cfemail&quot;);if(a){for(e=&quot;&quot;,r=parseInt(a.substr(0,2),16),n=2;a.length-n;n+=2)i=parseInt(a.substr(n,2),16)^r,e+=String.fromCharCode(i);e=document.createTextNode(e),c.parentNode.replaceChild(e,c)}}}catch(u){}}();/* ]]&gt; */&lt;/script&gt;\nFormat settings, CABAC                   : Yes\nFormat settings, ReFrames                : 4 frames\nCodec ID                                 : avc1\nCodec ID/Info                            : Advanced Video Coding\nDuration                                 : 2h 32mn\nBit rate                                 : 474 Kbps\nNominal bit rate                         : 569 Kbps\nWidth                                    : 640 pixels\nHeight                                   : 272 pixels\nDisplay aspect ratio                     : 2.35:1\nFrame rate mode                          : Variable\nFrame rate                               : 25.000 fps\nOriginal frame rate                      : 29.970 fps\nMinimum frame rate                       : 7.493 fps\nMaximum frame rate                       : 29.970 fps\nColor space                              : YUV\nChroma subsampling                       : 4:2:0\nBit depth                                : 8 bits\nScan type                                : Progressive\nBits/(Pixel*Frame)                       : 0.109\nStream size                              : 518 MiB (86%)\nWriting library                          : x264 core 123 r2189 35cf912\nEncoding settings                        : cabac=1 // deblock=1:0:0 / analyse=0x3:0x133 / me=hex / subme=7 / psy=1 / psy_rd=1.00:0.00 // me_range=16 / chroma_me=1 / trellis=1 / 8x8dct=1 / cqm=0 / deadzone=21,11 / fast_pskip=1 / chroma_qp_offset=-2 / threads=6 / sliced_threads=0 / nr=0 / decimate=1 / interlaced=0 / bluray_compat=0 / constrained_intra=0 / bframes=3 / b_pyramid=2 / b_adapt=1 / b_bias=0 / direct=1 / weightb=1 / open_gop=0 / weightp=2 / keyint=250 / keyint_min=25 / scenecut=40 / intra_refresh=0 / rc_lookahead=40 / rc=abr / mbtree=1 / bitrate=569 / ratetol=1.0 / qcomp=0.60 / qpmin=10 / qpmax=51 / qpstep=4 / ip_ratio=1.40 / aq=1:1.00\n\nAudio\nID                                       : 2\nFormat                                   : AAC\nFormat/Info                              : Advanced Audio Codec\nFormat profile                           : LC\nCodec ID                                 : 40\nDuration                                 : 2h 32mn\nBit rate mode                            : Constant\nBit rate                                 : 68.1 Kbps\nChannel(s)                               : 2 channels\nChannel positions                        : Front: L R\nSampling rate                            : 48.0 KHz\nCompression mode                         : Lossy\nStream size                              : 74.4 MiB (12%)\n[/CODE]\n\n[URL=http://imgbox.com/adzC8zsx][IMG]http://i.imgbox.com/adzC8zsx.png[/IMG][/URL] \n[URL=http://imgbox.com/abk4C1yQ][IMG]http://i.imgbox.com/abk4C1yQ.png[/IMG][/URL] \n[URL=http://imgbox.com/acvRfm0b][IMG]http://i.imgbox.com/acvRfm0b.png[/IMG][/URL] \n[URL=http://imgbox.com/abiPdlEw][IMG]http://i.imgbox.com/abiPdlEw.png[/IMG][/URL] \n[URL=http://imgbox.com/adhoqw7p][IMG]http://i.imgbox.com/adhoqw7p.png[/IMG][/URL] \n[URL=http://imgbox.com/abuUQ70J][IMG]http://i.imgbox.com/abuUQ70J.png[/IMG][/URL]\n[/CENTER]","torrent":{"xt":"urn:btih:bae8d68405c3f43d0266ef4e0ece4a63b309ead3","amp;dn":"Khoka+420+%282013%29+SCam+x264+%5B700mb%5D+-+www.Jalsatime.com.mp4","amp;tr":["udp%3A%2F%2Ftracker.openbittorrent.com%3A80","udp%3A%2F%2Fopen.demonii.com%3A1337","udp%3A%2F%2Ftracker.coppersurfer.tk%3A6969","udp%3A%2F%2Fexodus.desync.com%3A6969"],"infoHash":"bae8d68405c3f43d0266ef4e0ece4a63b309ead3","infoHashBuffer":{"type":"Buffer","data":[186,232,214,132,5,195,244,61,2,102,239,78,14,206,74,99,179,9,234,211]},"announce":[],"urlList":[]}}